<svg width="24" height="24" viewBox="0 0 24 24" fill="none" xmlns="http://www.w3.org/2000/svg">
<g id="star">
<path id="Vector" d="M18.4687 22.4978C18.3109 22.4984 18.1568 22.4492 18.0286 22.3572L12 17.9865L5.97139 22.3572C5.84259 22.4506 5.68742 22.5006 5.52832 22.5C5.36921 22.4995 5.21441 22.4483 5.08629 22.3539C4.95818 22.2596 4.86339 22.1269 4.81563 21.9752C4.76787 21.8234 4.76961 21.6604 4.82061 21.5097L7.17186 14.5454L1.07811 10.3665C0.946113 10.2761 0.846491 10.1459 0.793797 9.99479C0.741103 9.84373 0.7381 9.67977 0.785225 9.52687C0.83235 9.37398 0.927135 9.24016 1.05573 9.14497C1.18432 9.04978 1.33999 8.99821 1.49998 8.99779H9.0178L11.2865 2.01575C11.3354 1.86502 11.4308 1.73363 11.559 1.64045C11.6871 1.54726 11.8415 1.49707 12 1.49707C12.1585 1.49707 12.3128 1.54726 12.441 1.64045C12.5692 1.73363 12.6645 1.86502 12.7134 2.01575L14.9822 9.00013H22.5C22.6602 9.00005 22.8162 9.05127 22.9452 9.14627C23.0741 9.24128 23.1693 9.37509 23.2167 9.5281C23.2642 9.68111 23.2613 9.84529 23.2087 9.99659C23.1561 10.1479 23.0564 10.2783 22.9242 10.3689L16.8281 14.5454L19.178 21.5078C19.216 21.6205 19.2267 21.7407 19.2092 21.8583C19.1917 21.976 19.1464 22.0878 19.0771 22.1846C19.0078 22.2813 18.9165 22.3601 18.8107 22.4146C18.7049 22.4691 18.5877 22.4976 18.4687 22.4978Z" fill="#FFD600"/>
</g>
</svg>
